<svg width="19" height="19" viewBox="0 0 19 19" fill="none" xmlns="http://www.w3.org/2000/svg">
<path fill-rule="evenodd" clip-rule="evenodd" d="M9.48418 0.75C9.75493 0.75 9.99489 0.924329 10.0786 1.18182L11.9695 7H18.2342C18.5081 7 18.7501 7.17835 18.8312 7.43998C18.9122 7.70161 18.8135 7.98555 18.5876 8.14046L13.5088 11.6231L15.467 17.4251C15.5539 17.6828 15.4643 17.9671 15.2453 18.1283C15.0264 18.2895 14.7283 18.2907 14.5081 18.1311L9.48418 14.4906L4.46029 18.1311C4.24009 18.2907 3.942 18.2895 3.72301 18.1283C3.50403 17.9671 3.41441 17.6828 3.50137 17.4251L5.45956 11.6231L0.380722 8.14046C0.154823 7.98555 0.0561058 7.70161 0.137192 7.43998C0.218277 7.17835 0.46027 7 0.734178 7H6.99887L8.88978 1.18182C8.97347 0.924329 9.21343 0.75 9.48418 0.75ZM9.48418 3.39709L8.04732 7.81818C7.96364 8.07567 7.72368 8.25 7.45293 8.25H2.7508L6.55638 10.8595C6.78704 11.0177 6.88455 11.3099 6.79511 11.5749L5.31157 15.9705L9.11744 13.2127C9.33623 13.0541 9.63212 13.0541 9.85091 13.2127L13.6568 15.9705L12.1732 11.5749C12.0838 11.3099 12.1813 11.0177 12.412 10.8595L16.2176 8.25H11.5154C11.2447 8.25 11.0047 8.07567 10.921 7.81818L9.48418 3.39709Z" fill="#FF859B"/>
</svg>
